<svg xmlns="http://www.w3.org/2000/svg" width="64" height="40" viewBox="0 0 64 40" fill="none">
  <!-- Hoa vn vŁy sóng (seigaiha)  l·p nÁn kem -->
  <path
    d="M0 20c8 0 16-10 32-10S56 20 64 20"
    stroke="#C4A882"
    stroke-width="1.1"
    opacity="0.55"
  />
  <path
    d="M0 20c8 0 16-6 32-6S56 20 64 20"
    stroke="#C4A882"
    stroke-width="0.9"
    opacity="0.35"
  />
  <path
    d="M0 40c8 0 16-10 32-10S56 40 64 40"
    stroke="#C4A882"
    stroke-width="1.1"
    opacity="0.55"
  />
  <path
    d="M0 40c8 0 16-6 32-6S56 40 64 40"
    stroke="#C4A882"
    stroke-width="0.9"
    opacity="0.35"
  />
  <path
    d="M-32 0c8 0 16-10 32-10S16 0 32 0"
    stroke="#C4A882"
    stroke-width="1.1"
    opacity="0.45"
  />
  <path
    d="M32 0c8 0 16-10 32-10S80 0 96 0"
    stroke="#C4A882"
    stroke-width="1.1"
    opacity="0.45"
  />
</svg>
