<svg xmlns="http://www.w3.org/2000/svg" viewBox="0 0 640 900" fill="none">
  <defs>
    <linearGradient id="sun" x1="80" y1="40" x2="260" y2="240" gradientUnits="userSpaceOnUse">
      <stop stop-color="#F7D06A"/>
      <stop offset="0.55" stop-color="#F0A83A"/>
      <stop offset="1" stop-color="#E08920"/>
    </linearGradient>
    <linearGradient id="dragon" x1="120" y1="80" x2="480" y2="820" gradientUnits="userSpaceOnUse">
      <stop stop-color="#C4563E"/>
      <stop offset="0.4" stop-color="#9A3224"/>
      <stop offset="1" stop-color="#6B1A12"/>
    </linearGradient>
    <linearGradient id="lotus" x1="0" y1="0" x2="0" y2="1">
      <stop stop-color="#E06A58"/>
      <stop offset="1" stop-color="#8E2A1A"/>
    </linearGradient>
    <pattern id="wave" width="56" height="36" patternUnits="userSpaceOnUse">
      <path d="M0 18c7 0 14-9 28-9s21 9 28 9" stroke="#C9AE8A" stroke-width="1.05" opacity=".5"/>
      <path d="M0 18c7 0 14-5.5 28-5.5S49 18 56 18" stroke="#C9AE8A" stroke-width=".8" opacity=".3"/>
      <path d="M0 36c7 0 14-9 28-9s21 9 28 9" stroke="#C9AE8A" stroke-width="1.05" opacity=".5"/>
    </pattern>
  </defs>

  <rect width="640" height="900" fill="#F2E4CB"/>
  <rect width="640" height="900" fill="url(#wave)"/>

  <circle cx="188" cy="156" r="102" fill="url(#sun)"/>
  <circle cx="188" cy="156" r="118" fill="#E08920" opacity=".14"/>

  <g fill="#1B5A50">
    <path d="M72 148c22-36 66-46 102-24 18-28 58-38 90-14 12-6 28-6 40 4 30-12 62 6 66 38-28 6-50 24-52 54-38-14-78-6-100 24-40-12-78 0-96 34-48-12-78-36-50-116z"/>
    <path d="M268 198c28-24 68-22 92 6 22-18 54-16 72 8 24-6 46 12 44 36-32 4-54 22-56 48-34-8-70 4-88 32-46-6-84-24-64-130z" opacity=".9"/>
    <path d="M48 228c18-16 44-16 62 4 14-14 38-14 52 4 16-4 30 10 28 24-22 4-36 16-36 34-24-4-48 6-60 26-32-4-56-18-46-92z" opacity=".8"/>
  </g>

  <path
    fill="url(#dragon)"
    d="M396 96
       C448 108 498 148 508 198
       C520 260 482 312 430 348
       C372 392 338 448 352 512
       C366 578 430 612 470 668
       C516 736 470 804 392 836
       C328 860 262 842 228 792
       C192 740 228 688 286 672
       C344 656 372 708 348 756
       C336 780 312 792 286 788
       C318 820 372 836 430 812
       C520 772 560 688 508 620
       C462 560 392 540 372 486
       C352 430 388 380 440 346
       C502 304 538 248 522 190
       C508 140 458 108 396 96Z"
  />

  <path
    fill="none"
    stroke="#E2AF1D"
    stroke-width="2.2"
    opacity=".65"
    d="M396 96
       C448 108 498 148 508 198
       C520 260 482 312 430 348
       C372 392 338 448 352 512
       C366 578 430 612 470 668
       C516 736 470 804 392 836
       C328 860 262 842 228 792
       C192 740 228 688 286 672
       C344 656 372 708 348 756"
  />

  <g stroke="#E8C45A" stroke-width="1.15" fill="none" opacity=".7">
    <path d="M460 130c10 14 12 30 4 46"/>
    <path d="M485 165c8 16 6 34-6 48"/>
    <path d="M498 210c4 18-4 36-18 48"/>
    <path d="M470 265c-12 16-28 28-46 34"/>
    <path d="M430 305c-16 12-30 28-36 46"/>
    <path d="M390 360c-12 16-16 36-10 54"/>
    <path d="M365 420c-4 18 2 36 14 50"/>
    <path d="M360 480c6 16 20 30 38 36"/>
    <path d="M400 530c14 12 30 22 48 24"/>
    <path d="M450 575c14 14 24 32 24 50"/>
    <path d="M470 640c6 18-2 36-18 48"/>
    <path d="M440 700c-12 14-28 24-46 28"/>
    <path d="M380 750c-16 10-34 12-50 6"/>
    <path d="M310 780c-16 4-32-2-44-14"/>
    <path d="M250 770c-12-6-20-18-22-32"/>
  </g>

  <g fill="#1B5A50">
    <path d="M372 88c28-40 72-48 96-22-2 28-28 52-62 66-18-8-30-22-34-44z"/>
    <path d="M470 118c36-18 72 2 84 36-28 22-68 28-104 18 4-20 10-38 20-54z"/>
    <path d="M520 190c34 8 52 42 42 74-32 10-70-2-96-28 16-18 34-34 54-46z"/>
    <path d="M470 300c-8 28 6 58 34 74-36 18-82 8-108-24 22-20 48-38 74-50z"/>
    <path d="M350 430c-2 30 22 56 54 66-34 28-86 22-116-12 18-22 38-40 62-54z"/>
    <path d="M420 580c24 20 36 54 22 82-36 4-72-18-90-48 24-12 46-24 68-34z"/>
    <path d="M300 760c-12 28 2 60 34 74-40 18-90 2-112-36 24-16 50-28 78-38z"/>
    <path d="M210 730c-20 8-28 32-14 50-28 4-52-16-56-44 20-6 44-10 70-6z" opacity=".85"/>
  </g>

  <g transform="translate(470 55)">
    <ellipse cx="0" cy="55" rx="58" ry="42" fill="url(#dragon)"/>
    <path d="M30 42c36-12 68 8 74 42-26 16-58 18-88 6 2-16 6-34 14-48z" fill="#7A2418"/>
    <circle cx="22" cy="48" r="6.5" fill="#1A1512"/>
    <circle cx="24" cy="46.5" r="2" fill="#F2E4CB"/>
    <path d="M55 70c16 4 28 18 24 34-14 4-30-2-40-16 6-6 12-12 16-18z" fill="#5C160F"/>
    <path d="M70 88c22 12 18 36-6 44 0-16-8-30-20-38 8-2 18-4 26-6z" fill="none" stroke="#E2AF1D" stroke-width="2.4"/>
    <path d="M-48 40c-24-28-8-56 28-60 4 20 0 42-14 58-4 2-10 4-14 2z" fill="#1B5A50"/>
    <path d="M-58 68c-22-4-32-26-16-44 12 8 20 24 16 40 0 2 0 4 0 4z" fill="#1B5A50" opacity=".88"/>
    <path d="M-20 20c8-18 28-24 44-12-10 12-24 20-40 24-2-4-4-8-4-12z" fill="#E8C45A" opacity=".45"/>
  </g>

  <g fill="none" stroke-linecap="round">
    <path d="M500 240c36 12 52 40 46 68" stroke="#8E2A1A" stroke-width="7"/>
    <path d="M542 298l18 12M546 308l20 2M540 316l16-10" stroke="#1B5A50" stroke-width="4.5"/>
    <path d="M360 500c-38 22-44 56-28 82" stroke="#8E2A1A" stroke-width="7"/>
    <path d="M336 568l-20 10M330 578l-18-4M346 582l-10 16" stroke="#1B5A50" stroke-width="4.5"/>
    <path d="M240 760c-34 26-28 62-4 82" stroke="#8E2A1A" stroke-width="7"/>
    <path d="M220 828l-18 12M214 838l-20 0M230 842l-10 14" stroke="#1B5A50" stroke-width="4.5"/>
  </g>

  <g transform="translate(36 680)">
    <path d="M120 140c-10-52 12-92 54-116 42 24 64 64 54 116-34-14-72-14-108 0z" fill="url(#lotus)"/>
    <path d="M92 146c-28-36-16-78 18-108 10 30 8 64-6 94-4 6-8 10-12 14z" fill="#C4563E"/>
    <path d="M200 146c28-36 16-78-18-108-10 30-8 64 6 94 4 6 8 10 12 14z" fill="#C4563E"/>
    <path d="M148 48c-6 24-2 48 10 70 12-22 14-46 8-70-6-2-12-2-18 0z" fill="#E8C45A" opacity=".5"/>
    <path d="M132 152c0 26-22 52-54 62 40 6 80 6 120 0-32-10-54-36-54-62z" fill="#6B1A12"/>
    <path d="M48 188c-14 30-48 46-80 36 30 24 72 28 110 10-10-12-22-28-30-46z" fill="#1B5A50"/>
    <path d="M220 180c16 28 54 40 86 28-32 26-78 30-118 8 12-10 22-22 32-36z" fill="#1B5A50"/>
  </g>
  <g transform="translate(210 740) scale(0.78)">
    <path d="M120 140c-10-52 12-92 54-116 42 24 64 64 54 116-34-14-72-14-108 0z" fill="url(#lotus)"/>
    <path d="M92 146c-28-36-16-78 18-108 10 30 8 64-6 94-4 6-8 10-12 14z" fill="#C4563E"/>
    <path d="M200 146c28-36 16-78-18-108-10 30-8 64 6 94 4 6 8 10 12 14z" fill="#C4563E"/>
    <path d="M132 152c0 26-22 52-54 62 40 6 80 6 120 0-32-10-54-36-54-62z" fill="#6B1A12"/>
  </g>
  <g transform="translate(8 770) scale(0.58)">
    <path d="M120 140c-10-52 12-92 54-116 42 24 64 64 54 116-34-14-72-14-108 0z" fill="#C4563E"/>
    <path d="M132 152c0 26-22 52-54 62 40 6 80 6 120 0-32-10-54-36-54-62z" fill="#6B1A12"/>
  </g>

  <g>
    <path d="M430 820c52-12 92 12 102 52-36 6-74 0-102-16-10-10-10-26 0-36z" fill="#1B5A50" opacity=".85"/>
    <path d="M520 770c12-32 40-48 70-42-6 38-28 64-60 74-14-8-16-20-10-32z" fill="#1B5A50" opacity=".8"/>
    <ellipse cx="575" cy="748" rx="16" ry="26" fill="#8E2A1A" transform="rotate(-20 575 748)"/>
    <ellipse cx="575" cy="748" rx="7" ry="16" fill="#E8C45A" opacity=".4" transform="rotate(-20 575 748)"/>
  </g>
</svg>
